# xmcd
#
# Track frame offsets:
#	150
#	19427
#	39226
#	58722
#	79773
#	98569
#	122270
#	142969
#	160225
#	178530
#	200731
#	219033
#
# Disc length: 3230 seconds
#
# Revision: 0
# Processed by: cddbd v1.5.2PL0 Copyright (c) Steve Scherf et al.
# Submitted via: EasyCDDAExtractor 10.0.2.1
#
DISCID=950c9c0c
DTITLE=Various Artist - Luxury Soul 2006 Disc 1
DYEAR=2005
DGENRE=Soul
TTITLE0=Nicolas Bearde - Every Little Star
TTITLE1=Maysa - Soul Child
TTITLE2=Byron Woods - If It Takes All Night
TTITLE3=Gary "G" Jenkins - Gary "G" Jenkins
TTITLE4=Alyson Wiliams - Soft and Warm
TTITLE5=Frank McComb - Fools
TTITLE6=Gwendolyn Joy - I Surrender
TTITLE7=Atlantic Strarr - You
TTITLE8=Stephanie Mills - For You
TTITLE9=Jabari Grover - Pocket Full Of Dreams
TTITLE10=Impromp2 - Let Me Take You Away
TTITLE11=Sandra St Victor - Winter In My Heart
EXTD=
EXTT0=
EXTT1=
EXTT2=
EXTT3=
EXTT4=
EXTT5=
EXTT6=
EXTT7=
EXTT8=
EXTT9=
EXTT10=
EXTT11=
PLAYORDER=
